<?xml version="1.0" encoding="UTF-8"?>
<svg width="105px" height="120px" viewBox="0 0 105 120" version="1.1" xmlns="http://www.w3.org/2000/svg" xmlns:xlink="http://www.w3.org/1999/xlink">
    <!-- Generator: Sketch 52.3 (67297) - http://www.bohemiancoding.com/sketch -->
    <title>分组</title>
    <desc>Created with Sketch.</desc>
    <defs>
        <polygon id="path-1" points="6.35761589e-05 0.136235762 104.420185 0.136235762 104.420185 61.5099179 6.35761589e-05 61.5099179"></polygon>
        <polygon id="path-3" points="0 0.126516556 52.2100768 0.126516556 52.2100768 41.6172715 0 41.6172715"></polygon>
        <polygon id="path-5" points="0.0777059603 0.126389404 52.2877351 0.126389404 52.2877351 41.6173033 0.0777059603 41.6173033"></polygon>
        <polygon id="path-7" points="6.35761589e-05 0.115128477 104.420185 0.115128477 104.420185 61.4888106 6.35761589e-05 61.4888106"></polygon>
        <polygon id="path-9" points="6.35761589e-05 0.115128477 104.420185 0.115128477 104.420185 61.4888106 6.35761589e-05 61.4888106"></polygon>
        <polygon id="path-11" points="0 0.0432476821 52.2100768 0.0432476821 52.2100768 41.5340026 0 41.5340026"></polygon>
        <polygon id="path-13" points="0.0777059603 0.0431205298 52.2877351 0.0431205298 52.2877351 41.5338755 0.0777059603 41.5338755"></polygon>
        <polygon id="path-15" points="6.35761589e-05 0.0318596026 104.420185 0.0318596026 104.420185 61.4055417 6.35761589e-05 61.4055417"></polygon>
        <polygon id="path-17" points="6.35761589e-05 0.0318596026 104.420185 0.0318596026 104.420185 61.4055417 6.35761589e-05 61.4055417"></polygon>
        <polygon id="path-19" points="0 0.118903311 52.2100768 0.118903311 52.2100768 41.6096583 0 41.6096583"></polygon>
        <polygon id="path-21" points="0.0777059603 0.118776159 52.2877351 0.118776159 52.2877351 41.6096901 0.0777059603 41.6096901"></polygon>
        <polygon id="path-23" points="6.35761589e-05 0.107602649 104.420185 0.107602649 104.420185 61.4811974 6.35761589e-05 61.4811974"></polygon>
    </defs>
    <g id="Page-1" stroke="none" stroke-width="1" fill="none" fill-rule="evenodd">
        <g id="未搜索到结果" transform="translate(-908.000000, -222.000000)">
            <g id="分组" transform="translate(908.000000, 222.000000)">
                <g transform="translate(0.000000, 58.382464)">
                    <mask id="mask-2" fill="white">
                        <use xlink:href="#path-1"></use>
                    </mask>
                    <g id="Clip-2"></g>
                    <path d="M102.040196,34.9389775 L59.1785801,59.6457854 C54.8665272,62.1312954 49.5537854,62.1312954 45.2417325,59.6457854 L2.38011656,34.9389775 C-0.793287417,33.1097325 -0.793287417,28.5365404 2.38011656,26.7071364 L45.2417325,2.00048742 C49.5537854,-0.485181457 54.8665272,-0.485181457 59.1785801,2.00048742 L102.040196,26.7071364 C105.2136,28.5365404 105.2136,33.1097325 102.040196,34.9389775" id="Fill-1" fill="#CAD0E6" mask="url(#mask-2)"></path>
                </g>
                <g transform="translate(0.000000, 65.852662)">
                    <mask id="mask-4" fill="white">
                        <use xlink:href="#path-3"></use>
                    </mask>
                    <g id="Clip-4"></g>
                    <path d="M45.241653,39.7530596 L2.38019603,15.0462517 C0.793335099,14.1317086 -9.53642384e-05,12.5310199 -9.53642384e-05,10.9304901 L-9.53642384e-05,0.126516556 L52.2100768,30.2220397 L52.2100768,41.6172715 C49.8038781,41.6172715 47.3976795,40.9958146 45.241653,39.7530596" id="Fill-3" fill="#E1E6F0" mask="url(#mask-4)"></path>
                </g>
                <g transform="translate(52.132450, 65.852662)">
                    <mask id="mask-6" fill="white">
                        <use xlink:href="#path-5"></use>
                    </mask>
                    <g id="Clip-6"></g>
                    <path d="M49.9075868,15.0462834 L7.0461298,39.7530914 C4.89010331,40.9958464 2.48390464,41.6173033 0.0777059603,41.6173033 L0.0777059603,30.2219126 L52.2878781,0.126389404 L52.2878781,10.9303629 C52.2878781,12.5310517 51.4942887,14.1317404 49.9075868,15.0462834" id="Fill-5" fill="#E1E6F0" mask="url(#mask-6)"></path>
                </g>
                <g transform="translate(0.000000, 35.177166)">
                    <mask id="mask-8" fill="white">
                        <use xlink:href="#path-7"></use>
                    </mask>
                    <g id="Clip-8"></g>
                    <path d="M102.040196,34.9178702 L59.1785801,59.6246781 C54.8665272,62.1101881 49.5537854,62.1101881 45.2417325,59.6246781 L2.38011656,34.9178702 C-0.793287417,33.0886252 -0.793287417,28.5154331 2.38011656,26.6860291 L45.2417325,1.97938013 C49.5537854,-0.506288742 54.8665272,-0.506288742 59.1785801,1.97938013 L102.040196,26.6860291 C105.2136,28.5154331 105.2136,33.0886252 102.040196,34.9178702" id="Fill-7" fill="#FFFFFF" mask="url(#mask-8)"></path>
                </g>
                <g transform="translate(0.000000, 35.177166)">
                    <mask id="mask-10" fill="white">
                        <use xlink:href="#path-9"></use>
                    </mask>
                    <g id="Clip-10"></g>
                    <path d="M102.040196,34.9178702 L59.1785801,59.6246781 C54.8665272,62.1101881 49.5537854,62.1101881 45.2417325,59.6246781 L2.38011656,34.9178702 C-0.793287417,33.0886252 -0.793287417,28.5154331 2.38011656,26.6860291 L45.2417325,1.97938013 C49.5537854,-0.506288742 54.8665272,-0.506288742 59.1785801,1.97938013 L102.040196,26.6860291 C105.2136,28.5154331 105.2136,33.0886252 102.040196,34.9178702" id="Fill-9" fill="#CAD0E6" mask="url(#mask-10)"></path>
                </g>
                <g transform="translate(0.000000, 48.369219)">
                    <mask id="mask-12" fill="white">
                        <use xlink:href="#path-11"></use>
                    </mask>
                    <g id="Clip-12"></g>
                    <path d="M45.241653,39.6697907 L2.38019603,14.9629828 C0.793335099,14.0484397 -9.53642384e-05,12.447751 -9.53642384e-05,10.8472212 L-9.53642384e-05,0.0432476821 L52.2100768,30.1387709 L52.2100768,41.5340026 C49.8038781,41.5340026 47.3976795,40.9125457 45.241653,39.6697907" id="Fill-11" fill="#E1E6F0" mask="url(#mask-12)"></path>
                </g>
                <g transform="translate(52.132450, 48.369219)">
                    <mask id="mask-14" fill="white">
                        <use xlink:href="#path-13"></use>
                    </mask>
                    <g id="Clip-14"></g>
                    <path d="M49.9075868,14.9630146 L7.0461298,39.6698225 C4.89010331,40.9125775 2.48390464,41.5338755 0.0777059603,41.5338755 L0.0777059603,30.1388026 L52.2878781,0.0431205298 L52.2878781,10.847094 C52.2878781,12.4477828 51.4942887,14.0484715 49.9075868,14.9630146" id="Fill-13" fill="#E1E6F0" mask="url(#mask-14)"></path>
                </g>
                <g transform="translate(0.000000, 17.693722)">
                    <mask id="mask-16" fill="white">
                        <use xlink:href="#path-15"></use>
                    </mask>
                    <g id="Clip-16"></g>
                    <path d="M102.040196,34.8346013 L59.1785801,59.5414093 C54.8665272,62.0269192 49.5537854,62.0269192 45.2417325,59.5414093 L2.38011656,34.8346013 C-0.793287417,33.0053563 -0.793287417,28.4321642 2.38011656,26.6027603 L45.2417325,1.89611126 C49.5537854,-0.589557616 54.8665272,-0.589557616 59.1785801,1.89611126 L102.040196,26.6027603 C105.2136,28.4321642 105.2136,33.0053563 102.040196,34.8346013" id="Fill-15" fill="#FFFFFF" mask="url(#mask-16)"></path>
                </g>
                <g transform="translate(0.000000, 17.693722)">
                    <mask id="mask-18" fill="white">
                        <use xlink:href="#path-17"></use>
                    </mask>
                    <g id="Clip-18"></g>
                    <path d="M102.040196,34.8346013 L59.1785801,59.5414093 C54.8665272,62.0269192 49.5537854,62.0269192 45.2417325,59.5414093 L2.38011656,34.8346013 C-0.793287417,33.0053563 -0.793287417,28.4321642 2.38011656,26.6027603 L45.2417325,1.89611126 C49.5537854,-0.589557616 54.8665272,-0.589557616 59.1785801,1.89611126 L102.040196,26.6027603 C105.2136,28.4321642 105.2136,33.0053563 102.040196,34.8346013" id="Fill-17" fill="#CAD0E6" mask="url(#mask-18)"></path>
                </g>
                <g transform="translate(0.000000, 30.726834)">
                    <mask id="mask-20" fill="white">
                        <use xlink:href="#path-19"></use>
                    </mask>
                    <g id="Clip-20"></g>
                    <path d="M45.241653,39.7454464 L2.38019603,15.0386384 C0.793335099,14.1240954 -9.53642384e-05,12.5234066 -9.53642384e-05,10.9228768 L-9.53642384e-05,0.118903311 L52.2100768,30.2144265 L52.2100768,41.6096583 C49.8038781,41.6096583 47.3976795,40.9882013 45.241653,39.7454464" id="Fill-19" fill="#E1E6F0" mask="url(#mask-20)"></path>
                </g>
                <g transform="translate(52.132450, 30.726834)">
                    <mask id="mask-22" fill="white">
                        <use xlink:href="#path-21"></use>
                    </mask>
                    <g id="Clip-22"></g>
                    <path d="M49.9075868,15.0386702 L7.0461298,39.7454781 C4.89010331,40.9882331 2.48390464,41.6096901 0.0777059603,41.6096901 L0.0777059603,30.2144583 L52.2878781,0.118776159 L52.2878781,10.9227497 C52.2878781,12.5234384 51.4942887,14.1241272 49.9075868,15.0386702" id="Fill-21" fill="#E1E6F0" mask="url(#mask-22)"></path>
                </g>
                <g transform="translate(0.000000, 0.051338)">
                    <mask id="mask-24" fill="white">
                        <use xlink:href="#path-23"></use>
                    </mask>
                    <g id="Clip-24"></g>
                    <path d="M102.040196,34.910257 L59.1785801,59.6170649 C54.8665272,62.1025748 49.5537854,62.1025748 45.2417325,59.6170649 L2.38011656,34.910257 C-0.793287417,33.0810119 -0.793287417,28.5078199 2.38011656,26.6784159 L45.2417325,1.97176689 C49.5537854,-0.513901987 54.8665272,-0.513901987 59.1785801,1.97176689 L102.040196,26.6784159 C105.2136,28.5078199 105.2136,33.0810119 102.040196,34.910257" id="Fill-23" fill="#FFFFFF" mask="url(#mask-24)"></path>
                </g>
                <path d="M40.9568742,65.0264106 C42.1842119,64.3189669 42.3927417,62.3857748 41.4228874,60.7084768 C40.4528742,59.0311788 38.6717881,58.2449007 37.4444503,58.9523444 C36.2172715,59.6597881 36.0087417,61.5929801 36.978596,63.2702781 C37.9484503,64.9475762 39.7296954,65.7338543 40.9568742,65.0264106" id="Fill-25" fill="#FFCC5E"></path>
                <path d="M32.6845192,60.2578808 C33.911698,59.5504371 34.1203868,57.617245 33.1503735,55.939947 C32.1805192,54.2628079 30.3992742,53.4765298 29.1720954,54.1839735 C27.9449166,54.8912583 27.7362278,56.8244503 28.7062411,58.5017483 C29.6760954,60.1790464 31.4571815,60.9653245 32.6845192,60.2578808" id="Fill-27" fill="#FFCC5E"></path>
                <path d="M24.4120848,55.4894305 C25.6392636,54.7819868 25.8479523,52.8487947 24.8779391,51.1714967 C23.9080848,49.4941987 22.1268397,48.7079205 20.8996609,49.4155232 C19.6724821,50.1228079 19.4637934,52.056 20.4338066,53.733298 C21.4036609,55.410596 23.184906,56.1968742 24.4120848,55.4894305" id="Fill-29" fill="#FFCC5E"></path>
                <path d="M40.9568742,82.4550517 C42.1842119,81.7476079 42.3927417,79.8144159 41.4228874,78.1371179 C40.4528742,76.4598199 38.6717881,75.6735417 37.4444503,76.3811444 C36.2172715,77.0884291 36.0087417,79.0216212 36.978596,80.6989192 C37.9484503,82.3762172 39.7296954,83.1624954 40.9568742,82.4550517" id="Fill-31" fill="#FFCC5E"></path>
                <path d="M32.6845192,77.6866172 C33.911698,76.9791735 34.1203868,75.0459815 33.1503735,73.3686834 C32.1805192,71.6913854 30.3992742,70.9051073 29.1720954,71.612551 C27.9449166,72.3199947 27.7362278,74.2531868 28.7062411,75.9304848 C29.6760954,77.6077828 31.4571815,78.3940609 32.6845192,77.6866172" id="Fill-33" fill="#FFCC5E"></path>
                <path d="M40.9568742,99.9198675 C42.1842119,99.2124238 42.3927417,97.2792318 41.4228874,95.6020927 C40.4528742,93.9246358 38.6717881,93.1385166 37.4444503,93.8459603 C36.2172715,94.553245 36.0087417,96.4864371 36.978596,98.1637351 C37.9484503,99.8410331 39.7296954,100.627311 40.9568742,99.9198675" id="Fill-35" fill="#FFCC5E"></path>
                <path d="M24.4120848,90.3829033 C25.6392636,89.6754596 25.8479523,87.7422675 24.8779391,86.0649695 C23.9080848,84.3876715 22.1268397,83.6015523 20.8996609,84.308996 C19.6724821,85.0162808 19.4637934,86.9494728 20.4338066,88.6267709 C21.4036609,90.3040689 23.184906,91.090347 24.4120848,90.3829033" id="Fill-37" fill="#FFCC5E"></path>
            </g>
        </g>
    </g>
</svg>